REM MD5 07ffa635aa38a1138baf96d6d48bb406
FILE "Sammy Sosa Softball Slam (USA).bin" BINARY
  TRACK 01 MODE2/2352
    INDEX 01 00:00:00
  TRACK 02 AUDIO
    INDEX 00 04:49:68
    INDEX 01 04:51:68
  TRACK 03 AUDIO
    INDEX 00 07:09:41
    INDEX 01 07:11:41
REM LEADOUT 10:31:17
